<?xml version="1.0" encoding="utf-8"?>
<!-- Generator: Adobe Illustrator 27.0.0, SVG Export Plug-In . SVG Version: 6.00 Build 0)  -->
<svg version="1.1" id="图层_1" xmlns="http://www.w3.org/2000/svg" xmlns:xlink="http://www.w3.org/1999/xlink" x="0px" y="0px"
	 viewBox="0 0 3000 3000" style="enable-background:new 0 0 3000 3000;" xml:space="preserve">
<style type="text/css">
	.st0{fill:#FFFFFF;}
</style>
<g>
	<path class="st0" d="M2917.92,1785.27c-130.02-95.8-265-156.7-384.17-195.42c50.08-61.69,98.73-131.41,141.31-208.92
		c29.68-54.02-9.6-119.71-71.24-119.82c-97.13-0.18-189.57,10.58-274.06,27.07c24.95-167.84,44.66-497.4-97.04-844.91
		c-19.68-48.27-80.21-65.28-122.06-34.2c-220.8,164.01-362.43,364.7-448.2,521.84c-57.71-12.32-117.65-18.83-179.19-18.73
		c-61.53,0.1-121.46,6.79-179.13,19.3c-86.27-156.87-228.54-357.11-449.85-520.42c-41.95-30.95-102.42-13.75-121.95,34.58
		c-140.6,347.95-119.85,677.45-94.37,845.21c-84.53-16.22-177.01-26.69-274.14-26.21c-61.63,0.31-100.71,66.12-70.86,120.04
		c42.83,77.38,91.7,146.94,141.97,208.47c-119.05,39.1-253.83,100.42-383.55,196.64c-43.54,32.29-43.7,97.75-0.06,129.91
		c151.84,111.94,310.46,176.26,442.79,213.24c-41.48,49.85-81.69,104.81-118.29,164.86c-31.74,52.08,3.36,119.91,64.28,122.84
		c210.48,10.13,401.33-32.22,536.77-75.59c140.3,106.58,317.01,169.99,508.93,169.68c191.92-0.3,368.43-64.27,508.39-171.29
		c135.58,42.93,326.56,84.68,537.01,73.89c60.92-3.12,95.8-71.06,63.89-123.04c-36.79-59.93-77.17-114.77-118.81-164.48
		c132.21-37.39,290.62-102.22,442.11-214.64C2961.93,1882.88,2961.56,1817.43,2917.92,1785.27z M1655.15,1385.04
		c10.39-9.21,256.51-224.16,436.7-93.27c4.86,3.53,6.88,9.81,4.98,15.51c-1.89,5.71-7.5,9.64-13.28,9.44
		c-218.72-2.91-411.26,90.08-413.18,91.02c-1.94,0.95-4,1.4-6.04,1.41c-4.48,0.01-8.85-2.17-11.49-6.12
		C1649,1397.31,1649.98,1389.62,1655.15,1385.04z M875.91,1293.69c179.78-131.45,426.57,82.71,436.99,91.89
		c5.18,4.56,6.19,12.25,2.36,18c-2.63,3.95-6.99,6.14-11.47,6.15c-2.04,0-4.1-0.45-6.04-1.39c-1.92-0.94-194.75-93.32-413.46-89.72
		c-5.77,0.21-11.39-3.7-13.31-9.4C869.06,1303.52,871.06,1297.24,875.91,1293.69z M1655.83,2323.6
		c-22.15,5.62-44.46-8.33-49.75-30.56c-11.17-46.98-34.04-109.96-80.86-170.77c-16.55-21.5-48.97-21.44-65.46,0.1
		c-46.62,60.95-69.29,124.01-80.32,171.02c-5.22,22.25-27.49,36.27-49.65,30.71c-288.18-72.22-501.82-332.69-502.31-643.33
		c0-2.67,0.01-5.34,0.04-8c0.23-20.22,15.12-37.21,35.11-40.26c74.67-11.4,151.9-20.83,231.23-28.18
		c20.05-1.86,38.73,10.85,43.82,30.33c11.94,45.69,34.74,104.18,78.29,160.79c16.56,21.53,48.99,21.68,65.5,0.11
		c48.41-63.26,71.01-128.8,81.57-176.31c4.13-18.59,20.33-31.93,39.37-32.34c29.55-0.64,59.3-1,89.23-1.04
		c29.94-0.05,59.68,0.22,89.23,0.76c19.04,0.35,35.29,13.64,39.48,32.22c10.71,47.48,33.51,112.95,82.12,176.06
		c16.58,21.52,49,21.27,65.5-0.31c43.37-56.75,65.98-115.31,77.78-161.04c5.03-19.5,23.66-32.26,43.72-30.47
		c79.35,7.1,156.61,16.29,231.32,27.45c20,2.99,34.94,19.93,35.23,40.14c0.04,2.66,0.06,5.33,0.07,8
		C2156.6,1989.32,1943.79,2250.47,1655.83,2323.6z"/>
</g>
</svg>
